<svg viewBox="0 0 32 32" width="32" height="32" xmlns="http://www.w3.org/2000/svg">
  <defs>
    <clipPath id="shield-clip">
      <path d="M16 2 L28 7 L28 18 C28 24 22 29 16 31 C10 29 4 24 4 18 L4 7 Z"/>
    </clipPath>
  </defs>
  <path d="M16 2 L28 7 L28 18 C28 24 22 29 16 31 C10 29 4 24 4 18 L4 7 Z" fill="#0d1117" stroke="#00D4FF" stroke-width="1.5"/>
  <g clip-path="url(#shield-clip)">
    <line x1="4" y1="12" x2="28" y2="12" stroke="#00D4FF" stroke-width="0.4" opacity="0.3"/>
    <line x1="4" y1="16" x2="28" y2="16" stroke="#00D4FF" stroke-width="0.4" opacity="0.3"/>
    <line x1="4" y1="20" x2="28" y2="20" stroke="#00D4FF" stroke-width="0.4" opacity="0.3"/>
    <line x1="4" y1="24" x2="28" y2="24" stroke="#00D4FF" stroke-width="0.4" opacity="0.3"/>
  </g>
  <text x="16" y="21" text-anchor="middle" font-family="JetBrains Mono, monospace" font-weight="700" font-size="13" fill="#00D4FF">CG</text>
</svg>
